<svg xmlns="http://www.w3.org/2000/svg" width="400" height="400" viewBox="0 0 300 300" preserveAspectRatio="xMidYMid meet" fill="#e20000" xmlns:v="https://vecta.io/nano"><path d="M139.5 13.15C59.05 18.35-.35 95.85 15.05 175.5 35.95 283.75 169.2 324.8 247 247c89.8-89.85 19.8-242.1-107.5-233.85zm31.25 26.35c89.2 16.95 122.5 127.4 57.5 190.65C156.9 299.55 38 249.5 38 150c0-70.55 63.7-123.6 132.75-110.5zm-70.4 54.95c-5.15 2.25-8.25 8.7-6.9 14.3.45 1.75 7.8 9.9 19.85 22L132.45 150l-19.1 19.25c-10.5 10.6-19.45 20.3-19.85 21.6-2.6 8.6 6.35 17.9 15.15 15.7 1.85-.45 9.6-7.45 22.1-19.85L150 167.55l19.25 19.15c12.5 12.4 20.25 19.4 22.1 19.85 8.8 2.2 17.75-7.1 15.15-15.7-.4-1.3-9.35-11-19.85-21.6L167.55 150l19.15-19.25c21.2-21.4 21.85-22.45 18.5-30.05-1.55-3.5-2.8-4.7-6.2-6.1-7.45-2.95-8.6-2.25-29.75 18.75L150 132.45l-18.75-18.6c-22.5-22.4-23.15-22.75-30.9-19.4z"/></svg>