<svg xmlns="http://www.w3.org/2000/svg" width="512" height="512" viewBox="0 0 136 136.219" xmlns:v="https://vecta.io/nano"><path d="M40.618 80.832c-16.352-23.1-10.883-55.062 12.207-71.4s55.063-10.883 71.4 12.21 10.883 55.06-12.21 71.406a51.23 51.23 0 0 1-55.652 2.301l-37.77 37.543c-4.078 4.293-10.863 4.465-15.156.387a10.72 10.72 0 0 1-.391-15.152 9.21 9.21 0 0 1 .391-.391zm41.84 3.5c18.246.004 33.04-14.777 33.05-33.023.004-18.246-14.777-33.04-33.027-33.047-18.223-.008-33.008 14.75-33.043 32.973-.03 18.25 14.742 33.066 32.996 33.098h.023zm0 0" fill="#fff"/></svg>