<svg xmlns="http://www.w3.org/2000/svg" width="400" height="400" viewBox="0 0 300 300" preserveAspectRatio="xMidYMid meet" fill="green" xmlns:v="https://vecta.io/nano"><path d="M129.5 1.6C95.1 6.8 67.4 20.8 43.8 44.7 20 68.7 6.6 95.8 1.6 130.1c-2.7 18.5-1.6 38.2 3.4 58 10 39.3 38.7 75.4 75 94.3 17.5 9.1 30 13.1 50.1 16 18.5 2.7 38.2 1.6 58-3.4 39.3-10 75.4-38.7 94.3-75 9.1-17.5 13.1-30 16-50.1 2.7-18.5 1.6-38.2-3.4-58-10-39.3-38.7-75.4-75-94.3-5.8-3-13.6-6.6-17.4-8.1-22.3-8.3-50.5-11.4-73.1-7.9zm43.5 24c43.6 7.7 81.1 39.6 96.4 82.2 7 19.7 8.9 46.3 4.7 66.9-9.1 44-39.8 79.5-81.9 94.7-25.6 9.2-58.8 9.2-84.4 0C72 256.5 43.5 228 30.6 192.2c-7-19.7-8.9-46.3-4.7-66.9C40 57 104 13.6 173 25.6zm29.5 75.2c-1.6 1.1-18.7 17.8-38 37.1l-35 35.1-16-15.9c-13.1-13-16.7-16.1-19.6-16.6-6.2-1.2-12.5 3.4-13 9.5-.6 6.6-.1 7.2 20.3 27.8 11.2 11.2 21.5 21 23 21.8 4.2 2.2 8.1 1.7 12.4-1.5 2.1-1.6 21.5-20.6 43-42.2 41.4-41.7 41.1-41.3 39.2-48.5-1.8-6.9-10.4-10.4-16.3-6.6z"/></svg>