<svg xmlns="http://www.w3.org/2000/svg" viewBox="-40 0 380 200" preserveAspectRatio="xMidYMid meet" fill="#999" xmlns:v="https://vecta.io/nano"><path d="M117.35 93.5l.15 25.5h6.25H130v-10.95c0-11.15.9-14.05 4.5-14.05s4.5 2.9 4.5 14.05V119h6 6v-13.05c0-14.1-1.05-18.45-5.1-21.3-3.35-2.35-10.05-2.1-13.25.4l-2.65 2.1v-9.6V68h-6.4-6.4l.15 25.5zm130.9-20.25l-6.6 16.05-4.55 10.8 7.6-.3 7.6-.3 5.85-14 6.4-15.75c.5-1.55-.2-1.75-6.85-1.75h-7.4l-2.05 5.25zM35 83.95c0 .35 3.35 8.45 7.45 17.9l7.45 17.25-2.9 6.45-2.9 6.45h6.85 6.8l7.2-17.75 10.15-24.1L78 83.6c0-.1-3.05-.1-6.75 0l-6.75.25-3.95 10.05c-2.15 5.55-4.15 9.85-4.4 9.6-.25-.3-2.1-4.8-4.05-10.05l-3.6-9.55-6.75-.35c-3.7-.15-6.75 0-6.75.4zm48.75 1.3C79.1 87.9 75 95.6 75 101.45c.1 13.15 12.95 22.5 22.75 16.55 2.65-1.6 3.25-1.7 3.25-.5 0 1.15 1.35 1.5 6 1.5h6v-17.75V83.5l-6 .35c-3.3.2-6 .75-6 1.25 0 .55-1.35.25-2.95-.55-4.15-2.15-9.9-1.9-14.3.7zm14.35 9.8c4.95 2.65 4.3 10.7-1 12.9-7.35 3.05-13.4-5.85-7.95-11.65 2.35-2.45 5.75-2.95 8.95-1.25zm66.4-10.65c-16.3 7.3-12.7 32.35 5.05 35.15 15.65 2.45 26.65-13.4 19.15-27.6-4.1-7.75-15.65-11.35-24.2-7.55zm13.05 12.05c2.7 2.75 3 4.3 1.35 7.9-3.1 6.8-12.9 4.5-12.9-3 0-6.75 6.8-9.6 11.55-4.9zM203.2 85.1c-10.8 5.35-12.65 22.3-3.3 30.15 12.25 10.35 31 1.9 31.1-13.95.05-14.25-14.55-22.75-27.8-16.2zm13.45 10.4c4.4 3.05 3.8 8.85-1.2 12.1-5.15 3.4-11.85-2.85-9.55-8.85 1.75-4.55 6.75-6.1 10.75-3.25zm18.8 9.95c-6.5 6.5 1.25 17.35 9.4 13.15 3.3-1.75 4.15-3.35 4.15-8.1 0-6.7-8.65-9.9-13.55-5.05z"/></svg>